<?xml version="1.0" encoding="UTF-8" standalone="no"?>
<svg
   xmlns:dc="http://purl.org/dc/elements/1.1/"
   xmlns:cc="http://creativecommons.org/ns#"
   xmlns:rdf="http://www.w3.org/1999/02/22-rdf-syntax-ns#"
   xmlns:svg="http://www.w3.org/2000/svg"
   xmlns="http://www.w3.org/2000/svg"
   xmlns:sodipodi="http://sodipodi.sourceforge.net/DTD/sodipodi-0.dtd"
   xmlns:inkscape="http://www.inkscape.org/namespaces/inkscape"
   width="24"
   height="24"
   viewBox="0 0 24 24"
   version="1.1"
   id="svg26"
   sodipodi:docname="newNotification.svg"
   inkscape:version="0.92.4 (5da689c313, 2019-01-14)">
  <metadata
     id="metadata32">
    <rdf:RDF>
      <cc:Work
         rdf:about="">
        <dc:format>image/svg+xml</dc:format>
        <dc:type
           rdf:resource="http://purl.org/dc/dcmitype/StillImage" />
        <dc:title />
      </cc:Work>
    </rdf:RDF>
  </metadata>
  <defs
     id="defs30" />
  <sodipodi:namedview
     pagecolor="#ffffff"
     bordercolor="#666666"
     borderopacity="1"
     objecttolerance="10"
     gridtolerance="10"
     guidetolerance="10"
     inkscape:pageopacity="0"
     inkscape:pageshadow="2"
     inkscape:window-width="1920"
     inkscape:window-height="1001"
     id="namedview28"
     showgrid="false"
     inkscape:zoom="27.812867"
     inkscape:cx="1.6080712"
     inkscape:cy="13.260243"
     inkscape:window-x="-9"
     inkscape:window-y="-9"
     inkscape:window-maximized="1"
     inkscape:current-layer="layer1" />
  <path
     fill="none"
     d="M0 0h24v24H0V0z"
     id="path22" />
  <path
     d="M12 22c1.1 0 2-.9 2-2h-4c0 1.1.9 2 2 2zm6-6v-5c0-3.07-1.63-5.64-4.5-6.32V4c0-.83-.67-1.5-1.5-1.5s-1.5.67-1.5 1.5v.68C7.64 5.36 6 7.92 6 11v5l-2 2v1h16v-1l-2-2zm-2 1H8v-6c0-2.48 1.51-4.5 4-4.5s4 2.02 4 4.5v6z"
     id="path24" />
  <g
     inkscape:groupmode="layer"
     id="layer1"
     inkscape:label="Circle">
    <ellipse
       id="path37"
       cx="16.323381"
       cy="8.054142"
       rx="2.9482758"
       ry="2.9302983"
       style="fill:#ffffff" />
    <path
       style="fill:#07da5f;fill-opacity:0.85490196;stroke-width:0.03595458"
       d="m 4.0242191,18.500308 v -0.49462 l 0.988751,-0.988261 0.988751,-0.988261 5.332e-4,-2.517066 c 2.932e-4,-1.384386 0.01607,-2.743579 0.03506,-3.02043 C 6.1115692,9.4090999 6.3253447,8.5843172 6.7580776,7.7108402 7.073601,7.0739522 7.3654047,6.6652152 7.8533821,6.1766194 8.5794838,5.449597 9.3674737,5.0076843 10.487055,4.6996285 c 0.0331,-0.00911 0.04494,-0.1391086 0.04494,-0.4932528 0,-0.382317 0.0143,-0.5224494 0.06976,-0.6836571 0.198877,-0.5780475 0.702095,-0.9558225 1.316141,-0.9880517 0.366435,-0.019233 0.610782,0.047182 0.910887,0.2475839 0.270247,0.1804638 0.483403,0.46728 0.580213,0.7807176 0.05485,0.1775971 0.07127,0.3336562 0.07127,0.6775205 0,0.3264444 0.01211,0.4503107 0.04494,0.459907 0.52345,0.152966 0.841118,0.2705215 1.178585,0.4361444 0.460825,0.226165 0.45565,0.1922402 0.06276,0.4113751 -0.28972,0.1615903 -0.796337,0.6670819 -0.971057,0.9688998 -0.07381,0.1275068 -0.139324,0.2471877 -0.14558,0.2659578 -0.0063,0.01877 -0.107103,-0.00169 -0.224103,-0.045465 C 12.656744,6.4495607 11.709713,6.4097266 10.891544,6.6307117 10.533726,6.7273573 9.9587065,7.0088583 9.6690884,7.2291653 8.8681138,7.8384516 8.3355776,8.7398406 8.0802778,9.9184386 8.0047023,10.267334 8.0025084,10.357108 7.9891674,13.646685 l -0.01367,3.370742 h 4.0287756 4.028776 l 1.08e-4,-3.011196 1.08e-4,-3.011196 0.368422,-0.0069 c 0.463697,-0.0086 0.84266,-0.102493 1.258298,-0.311594 l 0.314603,-0.158272 v 2.737453 2.737453 l 1.006728,1.006247 1.006728,1.006247 v 0.494616 0.494616 H 12.006127 4.0242101 V 18.50028 Z"
       id="path1406"
       inkscape:connector-curvature="0" />
    <path
       style="fill:#07da5f;fill-opacity:0.85490196;stroke-width:0.03595458"
       d="m 11.530876,21.923324 c -0.673981,-0.163395 -1.269932,-0.757241 -1.448702,-1.443586 -0.02945,-0.113054 -0.05354,-0.266871 -0.05354,-0.341816 v -0.136265 h 1.977502 1.977502 v 0.102113 c 0,0.185046 -0.140728,0.656715 -0.257595,0.863363 -0.06316,0.111677 -0.223769,0.310969 -0.356916,0.442872 -0.487514,0.48296 -1.173424,0.674495 -1.838251,0.513319 z"
       id="path1408"
       inkscape:connector-curvature="0" />
  </g>
  <g
     inkscape:groupmode="layer"
     id="layer2"
     inkscape:label="Circle 1">
    <ellipse
       style="fill:#ff0000"
       id="path40"
       cx="16.377314"
       cy="8.0721197"
       rx="2.2831159"
       ry="2.2651386" />
  </g>
</svg>
